<?xml version="1.0" standalone="no"?>
<!DOCTYPE svg PUBLIC "-//W3C//DTD SVG 20010904//EN"
 "http://www.w3.org/TR/2001/REC-SVG-20010904/DTD/svg10.dtd">
<svg version="1.0" xmlns="http://www.w3.org/2000/svg"
 width="1200.000000pt" height="1200.000000pt" viewBox="0 0 1200.000000 1200.000000"
 preserveAspectRatio="xMidYMid meet">

<g transform="translate(0.000000,1200.000000) scale(0.100000,-0.100000)"
fill="#000000" stroke="none">
<path d="M1750 6000 l0 -1380 915 0 915 0 0 1380 0 1380 -915 0 -915 0 0
-1380z m1780 0 l0 -1330 -865 0 -865 0 0 1330 0 1330 865 0 865 0 0 -1330z"/>
<path d="M2413 6831 c-45 -3 -87 -11 -94 -18 -7 -7 -14 -50 -16 -98 -4 -81 -3
-86 19 -94 13 -4 67 -8 122 -9 54 0 100 -3 102 -5 5 -4 6 -126 3 -437 -1 -107
0 -213 1 -235 1 -22 1 -74 1 -115 -1 -230 5 -400 16 -411 9 -9 8 -15 -4 -27
-13 -14 -15 -33 -9 -117 7 -119 15 -129 89 -121 26 3 70 9 98 12 l50 6 -5 667
c-3 367 -8 675 -11 683 -4 9 -2 19 4 23 6 3 11 24 11 46 l0 39 98 0 c135 0
142 6 142 114 0 50 -5 87 -12 94 -13 13 -438 15 -605 3z"/>
<path d="M5080 6000 l0 -1380 920 0 920 0 0 1380 0 1380 -920 0 -920 0 0
-1380z m1780 0 l0 -1330 -860 0 -860 0 0 1330 0 1330 860 0 860 0 0 -1330z"/>
<path d="M5900 5360 c-17 -17 -20 -33 -20 -110 0 -88 1 -91 26 -100 35 -14
179 -6 199 10 11 9 15 33 15 100 0 49 -3 95 -6 104 -5 13 -24 16 -100 16 -81
0 -97 -3 -114 -20z"/>
<path d="M8420 6000 l0 -1380 915 0 915 0 0 1380 0 1380 -915 0 -915 0 0
-1380z m1780 0 l0 -1330 -865 0 -865 0 0 1330 0 1330 865 0 865 0 0 -1330z"/>
<path d="M9088 6831 c-48 -3 -92 -11 -99 -18 -7 -7 -14 -50 -16 -98 -4 -81 -3
-86 19 -94 13 -4 67 -8 122 -9 54 0 100 -3 102 -5 3 -2 5 -268 6 -591 1 -437
5 -591 14 -604 9 -12 8 -19 -4 -31 -12 -12 -13 -33 -8 -116 8 -118 16 -129 86
-121 123 15 146 19 152 29 4 6 5 70 3 142 -2 71 -6 366 -9 655 -2 289 -8 532
-11 541 -4 10 -2 20 4 24 6 3 11 24 11 46 l0 39 99 0 c137 0 143 5 139 125
l-3 90 -260 1 c-143 0 -299 -2 -347 -5z"/>
</g>
</svg>
